<?xml version="1.0" encoding="iso-8859-1"?>
<!-- Generator: Adobe Illustrator 19.0.0, SVG Export Plug-In . SVG Version: 6.00 Build 0)  -->
<svg version="1.1" id="Layer_1" xmlns="http://www.w3.org/2000/svg" xmlns:xlink="http://www.w3.org/1999/xlink" x="0px" y="0px"
	 viewBox="0 0 512 512" style="enable-background:new 0 0 512 512;" xml:space="preserve">
<g>
	<path style="fill:#DE9900;" d="M181.072,509.659c-25.254,0-49.693-5.084-72.639-15.111c-3.919-1.713-5.707-6.277-3.995-10.196
		c1.713-3.918,6.277-5.707,10.196-3.995c20.979,9.168,43.332,13.817,66.438,13.817c91.303,0,165.585-74.02,165.585-165.003
		c0-9.11-0.752-18.252-2.234-27.169c-0.701-4.219,2.15-8.208,6.369-8.908c4.216-0.702,8.207,2.151,8.908,6.37
		c1.622,9.755,2.443,19.75,2.443,29.709C362.143,428.692,280.915,509.659,181.072,509.659z"/>
	<path style="fill:#DE9900;" d="M252.811,36.329c-2.832,0-5.559-1.558-6.92-4.259c-1.926-3.819-0.391-8.475,3.428-10.4
		c25.443-12.826,52.9-19.33,81.61-19.33c25.252,0,49.69,5.084,72.638,15.112c3.919,1.713,5.707,6.278,3.995,10.196
		c-1.714,3.918-6.279,5.707-10.196,3.995c-20.979-9.168-43.333-13.817-66.437-13.817c-26.267,0-51.378,5.947-74.638,17.671
		C255.172,36.063,253.982,36.329,252.811,36.329z"/>
	<path style="fill:#DE9900;" d="M330.929,363.317c-99.844,0-181.072-80.966-181.072-180.487c0-56.374,25.71-108.483,70.536-142.967
		c3.392-2.607,8.254-1.973,10.86,1.417c2.607,3.39,1.974,8.251-1.415,10.859c-40.986,31.529-64.493,79.164-64.493,130.693
		c0,90.981,74.282,165.002,165.586,165.002c91.303,0,165.585-74.02,165.585-165.002c0-25.968-5.878-50.815-17.472-73.854
		c-1.923-3.82-0.385-8.475,3.436-10.398c3.82-1.922,8.475-0.383,10.397,3.437C505.566,127.232,512,154.422,512,182.83
		C512,282.351,430.772,363.317,330.929,363.317z"/>
</g>
<g>
	<ellipse style="fill:#BF953E;" cx="399.454" cy="24.148" rx="21.16" ry="21.086"/>
	<ellipse style="fill:#BF953E;" cx="487.121" cy="105.493" rx="21.161" ry="21.086"/>
</g>
<path style="fill:#DE9900;" d="M26.048,414.251c-2.834,0-5.562-1.56-6.922-4.264C6.434,384.768,0,357.578,0,329.17
	c0-99.521,81.228-180.487,181.072-180.487c76.813,0,145.494,48.516,170.905,120.724c1.421,4.033-0.698,8.455-4.732,9.874
	c-4.036,1.419-8.455-0.699-9.875-4.733c-23.233-66.021-86.045-110.379-156.297-110.379c-91.304,0-165.586,74.02-165.586,165.002
	c0,25.968,5.878,50.815,17.472,73.854c1.923,3.82,0.385,8.475-3.436,10.398C28.406,413.984,27.218,414.251,26.048,414.251z"/>
<g>
	<ellipse style="fill:#EFBA50;" cx="112.546" cy="487.852" rx="21.162" ry="21.086"/>
	<ellipse style="fill:#EFBA50;" cx="24.876" cy="406.507" rx="21.163" ry="21.086"/>
</g>
<g>
	<path style="fill:#FFC753;" d="M438.45,410.052c-17.36-4.793-20.423-7.856-25.218-25.218c-0.602-2.186-2.59-3.699-4.859-3.699
		c-2.27,0-4.257,1.513-4.859,3.699c-4.793,17.362-7.86,20.425-25.218,25.218c-2.187,0.604-3.702,2.592-3.702,4.86
		c0,2.267,1.515,4.255,3.702,4.86c17.358,4.793,20.425,7.858,25.218,25.218c0.602,2.185,2.589,3.7,4.859,3.7
		c2.268,0,4.257-1.515,4.859-3.7c4.795-17.361,7.858-20.425,25.218-25.218c2.187-0.605,3.699-2.593,3.699-4.86
		C442.149,412.645,440.637,410.656,438.45,410.052z"/>
	<path style="fill:#FFC753;" d="M141.305,71.977c-17.362-4.793-20.424-7.856-25.218-25.218c-0.603-2.186-2.591-3.699-4.86-3.699
		c-2.27,0-4.257,1.512-4.858,3.699c-4.794,17.363-7.861,20.425-25.219,25.218c-2.186,0.605-3.701,2.592-3.701,4.861
		c0,2.267,1.515,4.255,3.701,4.86c17.357,4.793,20.425,7.858,25.219,25.218c0.601,2.185,2.589,3.7,4.858,3.7s4.257-1.515,4.86-3.7
		c4.794-17.361,7.856-20.425,25.218-25.218c2.186-0.605,3.698-2.592,3.698-4.86C145.004,74.569,143.491,72.582,141.305,71.977z"/>
</g>
<g>
</g>
<g>
</g>
<g>
</g>
<g>
</g>
<g>
</g>
<g>
</g>
<g>
</g>
<g>
</g>
<g>
</g>
<g>
</g>
<g>
</g>
<g>
</g>
<g>
</g>
<g>
</g>
<g>
</g>
</svg>
